<svg width="120" height="84" viewBox="0 0 120 84" fill="none" xmlns="http://www.w3.org/2000/svg">
<g clip-path="url(#clip0_823_772)">
<path d="M0.398438 74.0743C0.398438 70.6727 3.01869 68.1367 6.58831 68.1367C10.12 68.1367 12.7402 70.6576 12.7402 74.0743C12.7402 77.4949 10.12 80.012 6.58831 80.012C3.01869 80.0044 0.398438 77.4684 0.398438 74.0743ZM11.0731 74.0743C11.0731 71.5042 9.1478 69.6211 6.57692 69.6211C3.96806 69.6211 2.04274 71.508 2.04274 74.0743C2.04274 76.6407 3.96806 78.5276 6.57692 78.5276C9.1592 78.5352 11.0731 76.6445 11.0731 74.0743Z" fill="black"/>
<path d="M14.7559 68.3719C14.7559 67.7873 15.2229 67.3203 15.8305 67.3203C16.4381 67.3203 16.9052 67.7645 16.9052 68.334C16.9052 68.93 16.4609 69.397 15.8305 69.397C15.2267 69.3932 14.7559 68.949 14.7559 68.3719ZM15.0483 71.0902H16.6318V79.8751H15.0369V71.0902H15.0483Z" fill="black"/>
<path d="M26.6344 74.5715V79.8751H25.1268V78.7134C24.5914 79.5069 23.6192 79.9814 22.2408 79.9814C20.2547 79.9814 18.9863 78.9184 18.9863 77.3998C18.9863 75.9913 19.8977 74.8296 22.518 74.8296H25.0395V74.5145C25.0395 73.1744 24.2534 72.3885 22.6851 72.3885C21.6332 72.3885 20.5813 72.7568 19.8977 73.3376L19.2408 72.1494C20.1522 71.4166 21.4699 71.0218 22.8711 71.0218C25.2787 70.999 26.6344 72.1683 26.6344 74.5715ZM25.0509 77.191V75.961H22.5939C21.0256 75.961 20.5699 76.5684 20.5699 77.3163C20.5699 78.1895 21.3028 78.7438 22.5066 78.7438C23.699 78.7476 24.6446 78.2009 25.0509 77.191Z" fill="black"/>
<path d="M43.6511 72.3202C43.6511 74.8411 41.8283 76.3672 38.8018 76.3672H35.9233V79.8865H34.2676V68.2656H38.8018C41.8245 68.2694 43.6511 69.7994 43.6511 72.3202ZM41.9916 72.3202C41.9916 70.665 40.879 69.7121 38.7638 69.7121H35.9385V74.917H38.7638C40.8904 74.917 41.9916 73.9755 41.9916 72.3202Z" fill="black"/>
<path d="M50.7529 71V72.5452C50.6238 72.5338 50.4985 72.5338 50.3846 72.5338C48.6757 72.5338 47.6086 73.5854 47.6086 75.4988V79.8799H46.0137V71.0949H47.5441V72.5755C48.1251 71.5353 49.2149 71 50.7529 71Z" fill="black"/>
<path d="M52.0215 75.4836C52.0215 72.8641 53.9582 71 56.605 71C59.2367 71 61.1658 72.8641 61.1658 75.4836C61.1658 78.1031 59.2405 79.9786 56.605 79.9786C53.9582 79.9786 52.0215 78.1031 52.0215 75.4836ZM59.5443 75.4836C59.5443 73.6082 58.2759 72.3971 56.5974 72.3971C54.9 72.3971 53.6316 73.6157 53.6316 75.4836C53.6316 77.3514 54.9114 78.5853 56.5974 78.5853C58.2911 78.5853 59.5443 77.359 59.5443 75.4836Z" fill="black"/>
<path d="M72.4697 75.4818C72.4697 78.1886 70.5938 79.9767 68.0267 79.9767C66.7849 79.9767 65.6836 79.4946 64.9621 78.5493V83.0936H63.3672V71.0931H64.8976V72.4826C65.6039 71.5107 66.7317 71.002 68.0419 71.002C70.5938 70.9982 72.4697 72.7977 72.4697 75.4818ZM70.8596 75.4818C70.8596 73.6177 69.5798 72.3953 67.8938 72.3953C66.2267 72.3953 64.9469 73.6253 64.9469 75.4818C64.9469 77.3572 66.2267 78.5834 67.8938 78.5834C69.5836 78.5834 70.8596 77.3572 70.8596 75.4818Z" fill="black"/>
<path d="M82.5878 76.0189H75.4562C75.6574 77.564 76.903 78.5891 78.6498 78.5891C79.6751 78.5891 80.5372 78.2322 81.1789 77.5261L82.0524 78.5511C81.2587 79.4737 80.0397 79.9786 78.5815 79.9786C75.7448 79.9786 73.8574 78.1031 73.8574 75.4836C73.8574 72.8754 75.7334 71 78.2625 71C80.7916 71 82.6068 72.8223 82.6068 75.5329C82.6144 75.662 82.5992 75.8632 82.5878 76.0189ZM75.4562 74.8648H81.0916C80.9245 73.3842 79.8119 72.3439 78.2663 72.3439C76.7549 72.3477 75.6232 73.369 75.4562 74.8648Z" fill="black"/>
<path d="M89.5517 71V72.5452C89.4226 72.5338 89.2973 72.5338 89.1834 72.5338C87.4745 72.5338 86.4074 73.5854 86.4074 75.4988V79.8799H84.8125V71.0949H86.3429V72.5755C86.9201 71.5353 88.0062 71 89.5517 71Z" fill="black"/>
<path d="M96.5663 79.3597C96.084 79.7773 95.3473 79.9671 94.641 79.9671C92.8676 79.9671 91.8536 78.9952 91.8536 77.2185V72.397H90.3574V71.0948H91.8536V69.1738H93.4486V71.0986H95.9701V72.4008H93.4486V77.1615C93.4486 78.1106 93.9422 78.6421 94.827 78.6421C95.2941 78.6421 95.7384 78.4903 96.0688 78.2245L96.5663 79.3597Z" fill="black"/>
<path d="M98.2129 68.3719C98.2129 67.7873 98.68 67.3203 99.2876 67.3203C99.8952 67.3203 100.362 67.7645 100.362 68.334C100.362 68.93 99.918 69.397 99.2876 69.397C98.68 69.3932 98.2129 68.949 98.2129 68.3719ZM98.4901 71.0902H100.085V79.8751H98.4901V71.0902Z" fill="black"/>
<path d="M111.027 76.0189H103.896C104.097 77.564 105.342 78.5891 107.089 78.5891C108.115 78.5891 108.977 78.2322 109.618 77.5261L110.492 78.5511C109.698 79.4737 108.479 79.9786 107.021 79.9786C104.184 79.9786 102.297 78.1031 102.297 75.4836C102.297 72.8754 104.173 71 106.702 71C109.231 71 111.046 72.8223 111.046 75.5329C111.069 75.662 111.05 75.8632 111.027 76.0189ZM103.896 74.8648H109.531C109.364 73.3842 108.251 72.3439 106.706 72.3439C105.187 72.3477 104.063 73.369 103.896 74.8648Z" fill="black"/>
<path d="M112.17 78.9521L112.827 77.6841C113.571 78.2194 114.764 78.5953 115.914 78.5953C117.395 78.5953 118.007 78.1511 118.007 77.407C118.007 75.4328 112.451 77.1412 112.451 73.6485C112.451 72.0806 113.86 71.0176 116.123 71.0176C117.262 71.0176 118.565 71.3251 119.328 71.811L118.645 73.079C117.851 72.5627 116.978 72.3843 116.115 72.3843C114.726 72.3843 114.042 72.9006 114.042 73.603C114.042 75.6758 119.617 73.9826 119.617 77.3994C119.617 78.9939 118.159 80.0075 115.819 80.0075C114.331 79.9772 112.891 79.5178 112.17 78.9521Z" fill="black"/>
<path d="M62.5281 56.9741C81.7509 50.9112 82.2559 7.87098 60.6825 1.21203C60.5154 1.16267 60.3445 1.02221 60.0977 0.984242C75.7509 1.09434 85.2332 12.5786 87.018 25.1524C89.3382 41.534 79.2825 54.6089 62.5433 56.9779H62.5281V56.9741ZM54.9863 0.972852C55.1382 0.946277 55.3015 0.934888 55.4534 0.912109C36.018 8.31896 35.5243 50.2696 57.2268 56.6856C57.4661 56.7236 57.5648 56.8754 57.8116 56.9134C42.0863 56.8868 32.604 45.319 30.8192 32.7452C28.8407 18.8085 36.2192 3.61897 54.9711 0.969056H54.9863V0.972852Z" fill="black"/>
</g>
<defs>
<clipPath id="clip0_823_772">
<rect width="120" height="84" fill="black"/>
</clipPath>
</defs>
</svg>
